<svg xmlns="http://www.w3.org/2000/svg" version="1.1" xmlns:xlink="http://www.w3.org/1999/xlink" xmlns:svgjs="http://svgjs.dev/svgjs" width="1500" height="1500" viewBox="0 0 1500 1500"><rect width="1500" height="1500" fill="#2e2f2f"></rect><g transform="matrix(0.6666666666666666,0,0,0.6666666666666666,249.39393939393938,438.58569500674764)"><svg viewBox="0 0 396 247" data-background-color="#2e2f2f" preserveAspectRatio="xMidYMid meet" height="935" width="1500" xmlns="http://www.w3.org/2000/svg" xmlns:xlink="http://www.w3.org/1999/xlink"><g id="tight-bounds" transform="matrix(1,0,0,1,0.2400000000000091,-0.09999999999999432)"><svg viewBox="0 0 395.52 247.2" height="247.2" width="395.52"><g><svg></svg></g><g><svg viewBox="0 0 395.52 247.2" height="247.2" width="395.52"><g transform="matrix(1,0,0,1,75.54432,76.70446725088175)"><svg viewBox="0 0 244.43135999999998 93.79106549823649" height="93.79106549823649" width="244.43135999999998"><g><svg viewBox="0 0 244.43135999999998 93.79106549823649" height="93.79106549823649" width="244.43135999999998"><g transform="matrix(1,0,0,1,0,57.966641188844214)"><svg viewBox="0 0 244.43135999999998 35.82442430939227" height="35.82442430939227" width="244.43135999999998"><g id="textblocktransform"><svg viewBox="0 0 244.43135999999998 35.82442430939227" height="35.82442430939227" width="244.43135999999998" id="textblock"><g><svg viewBox="0 0 244.43135999999998 35.82442430939227" height="35.82442430939227" width="244.43135999999998"><g transform="matrix(1,0,0,1,0,0)"><svg width="244.43135999999998" viewBox="1.45 -36.5 325.77000000000004 47.75" height="35.82442430939227" data-palette-color="#ffffff"><path d="M27.2-31.7L25.1-28.05Q24.5-28.75 23.5-29.4 22.5-30.05 21.25-30.58 20-31.1 18.53-31.43 17.05-31.75 15.45-31.75L15.45-31.75Q11.35-31.75 9.4-30.2 7.45-28.65 7.45-25.95L7.45-25.95Q7.45-24.05 8.45-22.95 9.45-21.85 11.53-21.15 13.6-20.45 16.8-19.7L16.8-19.7Q20.5-18.9 23.2-17.75 25.9-16.6 27.35-14.68 28.8-12.75 28.8-9.55L28.8-9.55Q28.8-7 27.83-5.13 26.85-3.25 25.1-2.02 23.35-0.8 21-0.23 18.65 0.35 15.9 0.35L15.9 0.35Q13.2 0.35 10.63-0.23 8.05-0.8 5.75-1.9 3.45-3 1.45-4.65L1.45-4.65 3.6-8.45Q4.4-7.6 5.68-6.78 6.95-5.95 8.58-5.25 10.2-4.55 12.1-4.13 14-3.7 16-3.7L16-3.7Q19.8-3.7 21.9-5.08 24-6.45 24-9.1L24-9.1Q24-11.1 22.83-12.3 21.65-13.5 19.35-14.3 17.05-15.1 13.75-15.9L13.75-15.9Q10.15-16.8 7.7-17.88 5.25-18.95 4.03-20.7 2.8-22.45 2.8-25.25L2.8-25.25Q2.8-28.65 4.45-31 6.1-33.35 9-34.55 11.9-35.75 15.55-35.75L15.55-35.75Q17.95-35.75 20.03-35.25 22.1-34.75 23.9-33.85 25.7-32.95 27.2-31.7L27.2-31.7ZM45.55 0.5L45.55 0.5Q42.6 0.5 40.17-0.58 37.75-1.65 35.97-3.53 34.2-5.4 33.22-7.85 32.25-10.3 32.25-13.05L32.25-13.05Q32.25-16.75 33.95-19.8 35.65-22.85 38.67-24.7 41.7-26.55 45.6-26.55L45.6-26.55Q49.55-26.55 52.47-24.68 55.4-22.8 57.02-19.78 58.65-16.75 58.65-13.25L58.65-13.25Q58.65-12.75 58.62-12.28 58.6-11.8 58.55-11.55L58.55-11.55 36.9-11.55Q37.1-9 38.32-7.03 39.55-5.05 41.5-3.93 43.45-2.8 45.7-2.8L45.7-2.8Q48.1-2.8 50.22-4 52.35-5.2 53.15-7.15L53.15-7.15 56.95-6.1Q56.1-4.2 54.42-2.7 52.75-1.2 50.47-0.35 48.2 0.5 45.55 0.5ZM36.75-14.6L36.75-14.6 54.55-14.6Q54.35-17.15 53.1-19.1 51.85-21.05 49.9-22.15 47.95-23.25 45.6-23.25L45.6-23.25Q43.3-23.25 41.35-22.15 39.4-21.05 38.17-19.1 36.95-17.15 36.75-14.6ZM75.09 0.5L75.09 0.5Q72.15 0.5 69.72-0.58 67.3-1.65 65.52-3.55 63.75-5.45 62.77-7.9 61.8-10.35 61.8-13.1L61.8-13.1Q61.8-16.8 63.45-19.85 65.09-22.9 68.09-24.73 71.09-26.55 75.05-26.55L75.05-26.55Q78.9-26.55 81.77-24.83 84.65-23.1 86.05-20.2L86.05-20.2 81.75-18.85Q80.75-20.7 78.95-21.73 77.15-22.75 74.95-22.75L74.95-22.75Q72.55-22.75 70.57-21.5 68.59-20.25 67.45-18.07 66.3-15.9 66.3-13.1L66.3-13.1Q66.3-10.35 67.47-8.13 68.65-5.9 70.62-4.6 72.59-3.3 75-3.3L75-3.3Q76.55-3.3 77.97-3.85 79.4-4.4 80.47-5.33 81.55-6.25 81.95-7.35L81.95-7.35 86.25-6.05Q85.45-4.15 83.82-2.68 82.2-1.2 79.97-0.35 77.75 0.5 75.09 0.5ZM90.99-10.45L90.99-10.45 90.99-26.1 95.39-26.1 95.39-11.3Q95.39-7.3 96.79-5.3 98.19-3.3 100.94-3.3L100.94-3.3Q102.74-3.3 104.42-4.08 106.09-4.85 107.44-6.3 108.79-7.75 109.54-9.75L109.54-9.75 109.54-26.1 113.94-26.1 113.94-5Q113.94-4.2 114.27-3.83 114.59-3.45 115.34-3.4L115.34-3.4 115.34 0Q114.59 0.1 114.17 0.13 113.74 0.15 113.34 0.15L113.34 0.15Q112.09 0.15 111.19-0.63 110.29-1.4 110.24-2.55L110.24-2.55 110.14-5.6Q108.44-2.7 105.57-1.1 102.69 0.5 99.29 0.5L99.29 0.5Q95.19 0.5 93.09-2.27 90.99-5.05 90.99-10.45ZM135.09-26.25L135.09-22.25Q131.79-22.2 129.27-20.58 126.74-18.95 125.69-16.1L125.69-16.1 125.69 0 121.29 0 121.29-26.1 125.39-26.1 125.39-20.05Q126.74-22.75 128.97-24.43 131.19-26.1 133.64-26.3L133.64-26.3Q134.14-26.3 134.49-26.3 134.84-26.3 135.09-26.25L135.09-26.25ZM143.84 0L139.44 0 139.44-26.1 143.84-26.1 143.84 0ZM143.84-31L139.44-31 139.44-36.5 143.84-36.5 143.84-31ZM163.39-4.8L164.44-1.3Q163.89-1.05 162.94-0.65 161.99-0.25 160.74 0.05 159.49 0.35 158.09 0.35L158.09 0.35Q156.49 0.35 155.14-0.23 153.79-0.8 152.99-2.02 152.19-3.25 152.19-5.1L152.19-5.1 152.19-22.65 148.64-22.65 148.64-26.1 152.19-26.1 152.19-34.8 156.59-34.8 156.59-26.1 162.44-26.1 162.44-22.65 156.59-22.65 156.59-6.45Q156.69-5.05 157.54-4.38 158.39-3.7 159.54-3.7L159.54-3.7Q160.84-3.7 161.94-4.15 163.04-4.6 163.39-4.8L163.39-4.8ZM169.73 11L169.73 7.1Q170.38 7.15 171.03 7.23 171.68 7.3 172.03 7.3L172.03 7.3Q172.83 7.3 173.43 6.75 174.03 6.2 174.76 4.63 175.48 3.05 176.63 0L176.63 0 165.58-26.1 170.23-26.1 179.03-4.45 186.98-26.1 191.33-26.1 178.63 6.85Q178.18 8 177.31 9.03 176.43 10.05 175.08 10.65 173.73 11.25 171.83 11.25L171.83 11.25Q171.38 11.25 170.91 11.2 170.43 11.15 169.73 11L169.73 11ZM205.48-18L205.48-18Q205.48-21.25 206.6-24.38 207.73-27.5 209.9-30.08 212.08-32.65 215.23-34.18 218.38-35.7 222.38-35.7L222.38-35.7Q227.13-35.7 230.53-33.52 233.93-31.35 235.58-27.95L235.58-27.95 232.03-25.65Q230.98-27.9 229.35-29.23 227.73-30.55 225.85-31.1 223.98-31.65 222.18-31.65L222.18-31.65Q219.23-31.65 216.95-30.45 214.68-29.25 213.13-27.25 211.58-25.25 210.8-22.78 210.03-20.3 210.03-17.8L210.03-17.8Q210.03-15.05 210.95-12.5 211.88-9.95 213.53-8 215.18-6.05 217.43-4.9 219.68-3.75 222.33-3.75L222.33-3.75Q224.18-3.75 226.13-4.4 228.08-5.05 229.78-6.43 231.48-7.8 232.48-10L232.48-10 236.23-7.95Q235.13-5.3 232.83-3.45 230.53-1.6 227.7-0.65 224.88 0.3 222.13 0.3L222.13 0.3Q218.48 0.3 215.43-1.28 212.38-2.85 210.15-5.48 207.93-8.1 206.7-11.38 205.48-14.65 205.48-18ZM252.58 0.5L252.58 0.5Q249.63 0.5 247.23-0.58 244.83-1.65 243.08-3.53 241.33-5.4 240.38-7.85 239.43-10.3 239.43-13L239.43-13Q239.43-15.75 240.38-18.2 241.33-20.65 243.08-22.53 244.83-24.4 247.25-25.48 249.68-26.55 252.63-26.55L252.63-26.55Q255.53-26.55 257.93-25.48 260.33-24.4 262.1-22.53 263.88-20.65 264.83-18.2 265.78-15.75 265.78-13L265.78-13Q265.78-10.3 264.83-7.85 263.88-5.4 262.13-3.53 260.38-1.65 257.95-0.58 255.53 0.5 252.58 0.5ZM243.93-12.95L243.93-12.95Q243.93-10.25 245.1-8.05 246.28-5.85 248.23-4.58 250.18-3.3 252.58-3.3L252.58-3.3Q254.98-3.3 256.95-4.6 258.93-5.9 260.1-8.13 261.28-10.35 261.28-13.05L261.28-13.05Q261.28-15.75 260.1-17.95 258.93-20.15 256.95-21.45 254.98-22.75 252.58-22.75L252.58-22.75Q250.18-22.75 248.23-21.43 246.28-20.1 245.1-17.9 243.93-15.7 243.93-12.95ZM269.42-13L269.42-13Q269.42-16.7 270.95-19.78 272.47-22.85 275.15-24.7 277.82-26.55 281.27-26.55L281.27-26.55Q284.42-26.55 286.92-24.9 289.42-23.25 290.82-20.9L290.82-20.9 290.82-36.5 295.22-36.5 295.22-5Q295.22-4.2 295.55-3.83 295.87-3.45 296.62-3.4L296.62-3.4 296.62 0Q295.37 0.2 294.67 0.2L294.67 0.2Q293.37 0.2 292.4-0.7 291.42-1.6 291.42-2.7L291.42-2.7 291.42-4.9Q289.87-2.4 287.27-0.95 284.67 0.5 281.87 0.5L281.87 0.5Q279.17 0.5 276.9-0.58 274.62-1.65 272.95-3.55 271.27-5.45 270.35-7.88 269.42-10.3 269.42-13ZM290.82-9.15L290.82-9.15 290.82-16.65Q290.22-18.35 288.87-19.73 287.52-21.1 285.85-21.93 284.17-22.75 282.52-22.75L282.52-22.75Q280.57-22.75 279-21.93 277.42-21.1 276.3-19.73 275.17-18.35 274.57-16.6 273.97-14.85 273.97-12.95L273.97-12.95Q273.97-11 274.65-9.25 275.32-7.5 276.55-6.15 277.77-4.8 279.4-4.05 281.02-3.3 282.92-3.3L282.92-3.3Q284.12-3.3 285.4-3.75 286.67-4.2 287.82-5 288.97-5.8 289.77-6.88 290.57-7.95 290.82-9.15ZM314.12 0.5L314.12 0.5Q311.17 0.5 308.75-0.58 306.32-1.65 304.55-3.53 302.77-5.4 301.8-7.85 300.82-10.3 300.82-13.05L300.82-13.05Q300.82-16.75 302.52-19.8 304.22-22.85 307.25-24.7 310.27-26.55 314.17-26.55L314.17-26.55Q318.12-26.55 321.05-24.68 323.97-22.8 325.6-19.78 327.22-16.75 327.22-13.25L327.22-13.25Q327.22-12.75 327.2-12.28 327.17-11.8 327.12-11.55L327.12-11.55 305.47-11.55Q305.67-9 306.9-7.03 308.12-5.05 310.07-3.93 312.02-2.8 314.27-2.8L314.27-2.8Q316.67-2.8 318.8-4 320.92-5.2 321.72-7.15L321.72-7.15 325.52-6.1Q324.67-4.2 323-2.7 321.32-1.2 319.05-0.35 316.77 0.5 314.12 0.5ZM305.32-14.6L305.32-14.6 323.12-14.6Q322.92-17.15 321.67-19.1 320.42-21.05 318.47-22.15 316.52-23.25 314.17-23.25L314.17-23.25Q311.87-23.25 309.92-22.15 307.97-21.05 306.75-19.1 305.52-17.15 305.32-14.6Z" opacity="1" transform="matrix(1,0,0,1,0,0)" fill="#ffffff" class="wordmark-text-0" data-fill-palette-color="primary" id="text-0"></path></svg></g></svg></g></svg></g></svg></g><g transform="matrix(1,0,0,1,96.18067942710982,0)"><svg viewBox="0 0 52.07000114578033 49.509354395580125" height="49.509354395580125" width="52.07000114578033"><g><svg xmlns="http://www.w3.org/2000/svg" xmlns:xlink="http://www.w3.org/1999/xlink" version="1.1" x="8" y="0" viewBox="22.175 10 64.64999999999999 88.738" style="enable-background:new 0 0 109 109;" xml:space="preserve" height="49.509354395580125" width="36.07000114578033" class="icon-icon-0" data-fill-palette-color="accent" id="icon-0"><g fill="#c1c8cc" data-fill-palette-color="accent"><path class="" d="M54.5 10L22.175 20.46v40.53c0 11.446 5.953 21.495 14.927 27.237h-0.055l17.454 10.511 17.452-10.511h-0.055c8.974-5.742 14.927-15.791 14.927-27.237V20.46L54.5 10zM54.5 34.977c5.373 0 9.727 4.357 9.727 9.728 0 5.372-4.354 9.728-9.727 9.728s-9.727-4.356-9.727-9.728C44.773 39.334 49.127 34.977 54.5 34.977zM37.789 73.761c0-9.229 7.482-16.71 16.711-16.71s16.712 7.481 16.712 16.71H37.789z" fill="#c1c8cc" data-fill-palette-color="accent"></path></g></svg></g></svg></g><g><rect width="96.18067942710982" height="3.2306835550268826" y="45.27867084055324" x="148.25068057289016" fill="#c1c8cc" data-fill-palette-color="accent"></rect><rect width="96.18067942710982" height="3.2306835550268826" y="45.27867084055324" x="0" fill="#c1c8cc" data-fill-palette-color="accent"></rect><rect width="96.18067942710982" height="3.2306835550268826" y="38.817303730499475" x="148.25068057289016" fill="#c1c8cc" data-fill-palette-color="accent"></rect><rect width="96.18067942710982" height="3.2306835550268826" y="38.817303730499475" x="0" fill="#c1c8cc" data-fill-palette-color="accent"></rect></g></svg></g></svg></g><g><path d="M88.798 68.247A122.216 122.216 0 0 1 306.722 68.247L303.491 68.247A118.985 118.985 0 0 0 92.029 68.247L88.798 68.247M88.798 178.953A122.216 122.216 0 0 0 306.722 178.953L303.491 178.953A118.985 118.985 0 0 1 92.029 178.953L88.798 178.953" fill="#dedad7" stroke="transparent" data-fill-palette-color="tertiary"></path></g></svg></g><defs></defs></svg><rect width="395.52" height="247.2" fill="none" stroke="none" visibility="hidden"></rect></g></svg></g></svg>